<?xml version="1.0" encoding="UTF-8"?>
<svg viewBox="0 0 24 24" xmlns="http://www.w3.org/2000/svg">
<title>building remotecontrol</title>
<path d="m2 0h20a2 2 0 0 1 2 2v20a2 2 0 0 1-2 2h-20a2 2 0 0 1-2-2v-20a2 2 0 0 1 2-2z" fill="#148DD9"/>
<path d="m2 5.5v16.5h4.5v-3h1.5v3h10.5v-7.5h-6v-9h-10.5m1.5 1.5h1.5v1.5h-1.5v-1.5m3 0h1.5v1.5h-1.5v-1.5m3 0h1.5v1.5h-1.5v-1.5m-6 3h1.5v1.5h-1.5v-1.5m3 0h1.5v1.5h-1.5v-1.5m3 0h1.5v1.5h-1.5v-1.5m-6 3h1.5v1.5h-1.5v-1.5m3 0h1.5v1.5h-1.5v-1.5m3 0h1.5v1.5h-1.5v-1.5m-6 3h1.5v1.5h-1.5v-1.5m3 0h1.5v1.5h-1.5v-1.5m3 0h1.5v1.5h-1.5v-1.5m3 0h1.5v1.5h-1.5v-1.5m3 0h1.5v1.5h-1.5v-1.5m-12 3h1.5v1.5h-1.5v-1.5m6 0h1.5v1.5h-1.5v-1.5m3 0h1.5v1.5h-1.5v-1.5m3 0h1.5v1.5h-1.5v-1.5m-1.5-16.5a7.5 7.5 0 0 1 7.5 7.5h-1.5a6 6 0 0 0-6-6v-1.5m0 3a4.5 4.5 0 0 1 4.5 4.5h-1.5a3 3 0 0 0-3-3v-1.5m0 3a1.5 1.5 0 0 1 1.5 1.5h-1.5z" fill="#212A27"/>
</svg>